<svg width="80" height="80" viewBox="0 0 80 80" fill="none" xmlns="http://www.w3.org/2000/svg">
<g clip-path="url(#clip0_157_173)">
<g filter="url(#filter0_d_157_173)">
<path d="M40 58C51.0457 58 60 49.0457 60 38C60 26.9543 51.0457 18 40 18C28.9543 18 20 26.9543 20 38C20 49.0457 28.9543 58 40 58Z" fill="#00C2FF"/>
</g>
</g>
<path d="M43.463 31.7464C43.5695 31.8088 43.6945 31.8456 43.8269 31.8456C44.2202 31.8456 44.5365 31.5295 44.5365 31.136C44.5365 31.0883 44.5328 31.0405 44.5217 30.9928C44.5217 30.9928 44.5217 30.9928 44.5217 30.989C44.5217 30.9852 44.5217 30.9852 44.5217 30.9816C44.5217 30.5993 44.2093 30.2905 43.8269 30.2905C43.4446 30.2905 43.1357 30.5957 43.132 30.978V30.9816C43.121 31.0332 43.1136 31.0847 43.1136 31.136C43.1136 31.1949 43.121 31.25 43.1357 31.3051L41.4409 32.6213C41.3196 32.5111 41.1615 32.4522 40.985 32.4522C40.9041 32.4522 40.8232 32.4669 40.7497 32.4964L38.893 29.7979C38.963 29.6875 39.0034 29.5552 39.0034 29.4155C39.0034 29.0258 38.6872 28.7021 38.2938 28.7021C37.9004 28.7021 37.5843 29.0258 37.5843 29.4155C37.5843 29.511 37.6026 29.603 37.6394 29.6875L35.7901 31.5552C35.7864 31.559 35.7864 31.559 35.7864 31.5552C35.6982 31.5222 35.6063 31.5001 35.507 31.5001C35.1762 31.5001 34.8968 31.7316 34.8233 32.0404L33.4519 32.2831C33.3232 32.1323 33.1284 32.0331 32.9151 32.0331C32.5218 32.0331 32.2056 32.3567 32.2056 32.7463C32.2056 33.1398 32.5218 33.4559 32.9151 33.4559C33.2827 33.4559 33.5879 33.1766 33.621 32.8163L34.9078 32.5845C35.0328 32.7868 35.2534 32.9191 35.507 32.9191C35.9004 32.9191 36.2202 32.603 36.2202 32.2095C36.2202 32.1176 36.2019 32.0331 36.1725 31.9523L38.0291 30.0736C38.11 30.1067 38.1982 30.125 38.2938 30.125C38.3453 30.125 38.3931 30.1214 38.4372 30.1103L40.3343 32.864C40.2938 32.9559 40.2717 33.0552 40.2717 33.1581C40.2717 33.5516 40.5953 33.8677 40.985 33.8677C41.3783 33.8677 41.6946 33.5516 41.6946 33.1581C41.6946 33.1471 41.6946 33.1324 41.6909 33.1215L43.463 31.7464Z" fill="#000856"/>
<path d="M48.441 34.1912V29.0074C48.441 27.7942 47.4557 26.8088 46.2425 26.8088H30.1101C28.8969 26.8088 27.9116 27.7942 27.9116 29.0074V42.1472C27.9116 43.3603 28.8969 44.3457 30.1101 44.3457H35.8484L34.9444 47.166H33.9656C33.7626 47.166 33.5979 47.3307 33.5979 47.5337C33.5979 47.7367 33.7626 47.9013 33.9656 47.9013H42.9112C43.1142 47.9013 43.2788 47.7367 43.2788 47.5337C43.2788 47.3307 43.1142 47.166 42.9112 47.166H41.9322L41.0282 44.3457H44.1358L44.0991 46.3015C44.0693 47.3383 44.9001 48.1912 45.9337 48.1912H45.9558C47.0049 48.176 47.8149 47.2974 47.7609 46.2573L47.669 43.8199C47.7609 43.7427 47.8454 43.6545 47.9263 43.5626C49.8344 42.739 51.0881 40.8345 51.0881 38.75V38.6802C51.0623 36.7538 49.9999 35.0847 48.441 34.1912ZM38.1763 42.9449C37.8528 42.9449 37.5918 42.6803 37.5918 42.3604C37.5918 42.0369 37.8528 41.7721 38.1763 41.7721C38.4999 41.7721 38.7646 42.0369 38.7646 42.3604C38.7646 42.6803 38.4999 42.9449 38.1763 42.9449ZM40.2425 36.4669C40.1396 36.4669 40.0513 36.5553 40.0513 36.6581V38.0625H39.1616V33.3493C39.1616 33.2427 39.0733 33.1619 38.9705 33.1619H37.3822C37.2756 33.1619 37.1947 33.2427 37.1947 33.3493V38.0625H36.3014V34.6287C36.3014 34.5258 36.2204 34.4375 36.1138 34.4375H34.5256C34.4226 34.4375 34.3344 34.5258 34.3344 34.6287V38.0625H33.4447V36.4375C33.4447 36.3309 33.3565 36.2501 33.2535 36.2501H31.6653C31.5587 36.2501 31.4741 36.3309 31.4741 36.4375V38.0625H30.9042C30.7094 38.0625 30.5513 38.2206 30.5513 38.4118C30.5513 38.6068 30.7094 38.7647 30.9042 38.7647H40.5954V38.82C40.6028 39.3604 40.6947 39.8897 40.8638 40.3861H28.6469V29.0074C28.6469 28.2022 29.305 27.5441 30.1101 27.5441H46.2425C47.0513 27.5441 47.7057 28.2022 47.7057 29.0074V33.8421C47.1249 33.6214 46.4962 33.5001 45.8418 33.5001H45.7719C43.7204 33.5295 41.9594 34.7353 41.1212 36.4669H40.2425ZM45.9521 47.456H45.9337C45.276 47.456 44.8138 46.9072 44.8344 46.3162C44.8351 46.2785 44.8675 44.5102 44.8785 43.9082C45.6258 44.0511 46.2815 44.0045 46.9374 43.8823C46.9387 43.9201 47.027 46.3283 47.0256 46.2905C47.062 46.8944 46.5961 47.44 45.9521 47.456ZM45.9006 43.261C43.3864 43.2812 41.3636 41.268 41.3307 38.8089V38.7647C41.3307 36.243 43.3616 34.266 45.7792 34.2354H45.8418C48.3361 34.2354 50.3238 36.256 50.3528 38.6913C50.3898 41.2237 48.3827 43.2231 45.9006 43.261Z" fill="#000856"/>
<path d="M45.7939 35.1987C43.8224 35.2213 42.2646 36.8649 42.2939 38.7648V38.7978C42.3193 40.7404 43.8983 42.3166 45.8895 42.3016C47.9371 42.2665 49.4231 40.581 49.3931 38.7023C49.3695 36.7388 47.7417 35.1677 45.7939 35.1987ZM44.6542 39.9707C44.327 39.6508 44.1468 39.2281 44.1395 38.7721C44.1395 38.7685 44.1395 38.7685 44.1395 38.7648C44.1395 37.775 44.9254 37.0574 45.8196 37.0479C46.7608 37.0332 47.5365 37.7868 47.5476 38.7281C47.5598 40.2348 45.7519 41.019 44.6542 39.9707Z" fill="#000856"/>
<path d="M46.2056 37.8862C46.2387 37.9413 46.2571 38.0074 46.2571 38.0772C46.2571 38.3633 45.9766 38.5539 45.7865 38.5075C45.5403 38.5075 45.2963 38.2061 45.4335 37.9081C45.1569 38.034 44.9018 38.3519 44.9078 38.7612V38.7648C44.9078 39.242 45.302 39.6877 45.8564 39.6877C46.3586 39.6801 46.7871 39.2723 46.7792 38.7353C46.7755 38.353 46.5402 38.0259 46.2056 37.8862Z" fill="#000856"/>
<defs>
<filter id="filter0_d_157_173" x="0" y="0" width="80" height="80" filterUnits="userSpaceOnUse" color-interpolation-filters="sRGB">
<feFlood flood-opacity="0" result="BackgroundImageFix"/>
<feColorMatrix in="SourceAlpha" type="matrix" values="0 0 0 0 0 0 0 0 0 0 0 0 0 0 0 0 0 0 127 0" result="hardAlpha"/>
<feOffset dy="2"/>
<feGaussianBlur stdDeviation="10"/>
<feComposite in2="hardAlpha" operator="out"/>
<feColorMatrix type="matrix" values="0 0 0 0 0 0 0 0 0 0.76 0 0 0 0 1 0 0 0 0.8 0"/>
<feBlend mode="normal" in2="BackgroundImageFix" result="effect1_dropShadow_157_173"/>
<feBlend mode="normal" in="SourceGraphic" in2="effect1_dropShadow_157_173" result="shape"/>
</filter>
<clipPath id="clip0_157_173">
<rect width="80" height="80" fill="white"/>
</clipPath>
</defs>
</svg>
