<svg width="80" height="80" viewBox="0 0 80 80" fill="none" xmlns="http://www.w3.org/2000/svg">
<g clip-path="url(#clip0_157_175)">
<g filter="url(#filter0_d_157_175)">
<path d="M40 58C51.0457 58 60 49.0457 60 38C60 26.9543 51.0457 18 40 18C28.9543 18 20 26.9543 20 38C20 49.0457 28.9543 58 40 58Z" fill="#00C2FF"/>
</g>
<path d="M39.5 48.9999C36.2546 48.9999 32.7617 48.1563 32.7617 46.3046C32.7617 45.2485 33.9278 44.4128 36.0447 43.9521L36.3316 45.2695C34.5193 45.6637 34.1094 46.2191 34.1094 46.3046C34.1094 46.6507 35.9631 47.6523 39.5 47.6523C43.0369 47.6523 44.8906 46.6507 44.8906 46.3046C44.8906 46.2191 44.4807 45.6637 42.6684 45.2695L42.9553 43.9521C45.0722 44.4128 46.2383 45.2485 46.2383 46.3046C46.2383 48.1563 42.7454 48.9999 39.5 48.9999Z" fill="#000856"/>
<path d="M41.8584 32.7383H40.8477V33.4121H41.8584C42.044 33.4121 42.1953 33.2608 42.1953 33.0752C42.1953 32.8896 42.044 32.7383 41.8584 32.7383Z" fill="#000856"/>
<path d="M39.5 26C35.413 26 32.0879 29.3251 32.0879 33.4121C32.0879 35.0901 32.6643 36.7345 33.7113 38.0414L39.5 45.3611L45.2887 38.0414C46.3357 36.7345 46.9121 35.0901 46.9121 33.4121C46.9121 29.3251 43.587 26 39.5 26ZM38.1523 36.7812H36.8047V31.3906H38.1523V36.7812ZM41.8584 34.7598H40.8477V36.7812H39.5V34.7598V34.0859V31.3906H41.8584C42.7876 31.3906 43.543 32.146 43.543 33.0752C43.543 34.0044 42.7876 34.7598 41.8584 34.7598Z" fill="#000856"/>
</g>
<defs>
<filter id="filter0_d_157_175" x="0" y="0" width="80" height="80" filterUnits="userSpaceOnUse" color-interpolation-filters="sRGB">
<feFlood flood-opacity="0" result="BackgroundImageFix"/>
<feColorMatrix in="SourceAlpha" type="matrix" values="0 0 0 0 0 0 0 0 0 0 0 0 0 0 0 0 0 0 127 0" result="hardAlpha"/>
<feOffset dy="2"/>
<feGaussianBlur stdDeviation="10"/>
<feComposite in2="hardAlpha" operator="out"/>
<feColorMatrix type="matrix" values="0 0 0 0 0 0 0 0 0 0.76 0 0 0 0 1 0 0 0 0.8 0"/>
<feBlend mode="normal" in2="BackgroundImageFix" result="effect1_dropShadow_157_175"/>
<feBlend mode="normal" in="SourceGraphic" in2="effect1_dropShadow_157_175" result="shape"/>
</filter>
<clipPath id="clip0_157_175">
<rect width="80" height="80" fill="white"/>
</clipPath>
</defs>
</svg>
