<svg width="80" height="80" viewBox="0 0 80 80" fill="none" xmlns="http://www.w3.org/2000/svg">
<g clip-path="url(#clip0_156_66)">
<g filter="url(#filter0_d_156_66)">
<path d="M40 58C51.0457 58 60 49.0457 60 38C60 26.9543 51.0457 18 40 18C28.9543 18 20 26.9543 20 38C20 49.0457 28.9543 58 40 58Z" fill="#00C2FF"/>
</g>
<g clip-path="url(#clip1_156_66)">
<path d="M27.6274 47.5121C27.4957 47.3802 27.5008 47.1429 27.6855 46.9584L28.7769 45.8668C29.473 45.171 30.3482 44.9494 31.2341 45.8353L31.2604 45.8617C32.1463 46.7474 31.9142 47.6543 31.1866 48.3821L30.6646 48.904L31.8036 50.043C31.9724 50.2118 31.851 50.5016 31.6453 50.7073C31.4398 50.913 31.1498 51.0342 30.9809 50.8656L27.6274 47.5121ZM28.9193 47.1588L30.032 48.2714L30.5539 47.7493C30.8492 47.4541 30.8597 47.106 30.5011 46.7476L30.4432 46.6895C30.0847 46.331 29.7366 46.3415 29.4412 46.6367L28.9193 47.1588Z" fill="#000856"/>
<path d="M30.8913 44.2483C30.7596 44.1164 30.7435 43.9004 30.8965 43.7474L31.9881 42.656C32.7105 41.9336 33.5542 41.6277 34.4135 42.4872C35.004 43.0777 35.0726 43.6841 34.8459 44.1955L36.6546 44.7176C36.7074 44.7281 36.7494 44.7599 36.7758 44.7863C36.9815 44.9918 36.9287 45.4875 36.6861 45.7301C36.5808 45.8354 36.4384 45.8933 36.2696 45.8408L34.1447 45.1606L33.7966 45.5085L35.0673 46.7794C35.2361 46.948 35.1149 47.238 34.9092 47.4437C34.7035 47.6492 34.4135 47.7706 34.2449 47.6018L30.8913 44.2483ZM32.1831 43.895L33.164 44.8757L33.6859 44.3538C33.9812 44.0585 34.0392 43.7579 33.6702 43.3888C33.301 43.0198 33.0005 43.0777 32.7052 43.3731L32.1831 43.895Z" fill="#000856"/>
<path d="M34.2345 40.9054C34.0606 40.7312 34.1923 40.4517 34.398 40.2462C34.6035 40.0405 34.883 39.9086 35.0569 40.0827L38.4105 43.4363C38.5793 43.6049 38.4579 43.8949 38.2524 44.1006C38.0467 44.3063 37.7567 44.4275 37.5881 44.2589L34.2345 40.9054Z" fill="#000856"/>
<path d="M38.2418 41.6855L36.8443 40.2883C35.9376 39.3813 36.1643 38.4798 36.8919 37.752C37.6195 37.0244 38.5264 36.7925 39.4334 37.6994L40.8306 39.0967C41.7376 40.0036 41.5055 40.9105 40.7779 41.6381C40.0503 42.3659 39.1487 42.5925 38.2418 41.6855ZM38.6107 38.5218C38.2469 38.158 37.9042 38.1739 37.609 38.4693C37.3136 38.7644 37.3031 39.102 37.6669 39.4658L39.0642 40.8631C39.428 41.2269 39.7656 41.2164 40.0608 40.921C40.3562 40.6259 40.372 40.2831 40.008 39.9193L38.6107 38.5218Z" fill="#000856"/>
<path d="M39.2277 35.9121C39.0958 35.7802 39.0801 35.564 39.2331 35.4113L40.3245 34.3197C41.0469 33.5974 41.8906 33.2915 42.7499 34.151C43.3406 34.7416 43.409 35.348 43.1823 35.8594L44.991 36.3815C45.0438 36.392 45.0858 36.4235 45.1122 36.4501C45.3179 36.6556 45.2651 37.1513 45.0225 37.3937C44.9172 37.4992 44.7748 37.5572 44.606 37.5046L42.4811 36.8244L42.133 37.1723L43.4039 38.4431C43.5725 38.6119 43.4513 38.9019 43.2456 39.1076C43.0399 39.3131 42.7499 39.4343 42.5813 39.2657L39.2277 35.9121ZM40.5197 35.5588L41.5004 36.5396L42.0223 36.0177C42.3176 35.7223 42.3756 35.4218 42.0066 35.0526C41.6374 34.6837 41.3369 34.7416 41.0416 35.0369L40.5197 35.5588Z" fill="#000856"/>
<path d="M42.5709 32.569C42.397 32.395 42.5287 32.1155 42.7344 31.9098C42.9399 31.7043 43.2194 31.5724 43.3934 31.7466L46.7469 35.1001C46.9157 35.2687 46.7945 35.5587 46.5888 35.7644C46.3831 35.9699 46.0931 36.0913 45.9245 35.9225L42.5709 32.569Z" fill="#000856"/>
<path d="M46.262 28.3825C46.436 28.2085 46.6996 28.3244 46.8736 28.4983C47.0739 28.6989 47.1584 28.9625 47.0001 29.1206L46.2725 29.8484L49.1357 32.7114C49.3043 32.8802 49.1831 33.1702 48.9774 33.3757C48.7719 33.5814 48.4817 33.7028 48.3131 33.534L45.4499 30.6708L44.7223 31.3984C44.564 31.5567 44.3006 31.4724 44.1 31.2721C43.9261 31.0979 43.81 30.8343 43.984 30.6603L46.262 28.3825Z" fill="#000856"/>
<path d="M50.2374 28.9625C50.2058 28.9307 50.1687 28.915 50.1425 28.9097L47.2424 28.1926C47.2107 28.1821 47.1897 28.1609 47.1738 28.1452C46.9788 27.95 47.1687 27.4755 47.3954 27.2488C47.5273 27.1169 47.6273 27.1222 47.7856 27.1643L49.8787 27.7812L49.2566 25.6932C49.2092 25.5403 49.2092 25.4347 49.3409 25.303C49.5677 25.0763 50.0424 24.8865 50.2374 25.0817C50.2532 25.0975 50.2742 25.1186 50.2848 25.1501L51.0072 28.045C51.0124 28.0714 51.0282 28.1083 51.06 28.1398L52.3835 29.4633C52.5521 29.6321 52.4309 29.9221 52.2252 30.1276C52.0195 30.3333 51.7294 30.4546 51.5608 30.2859L50.2374 28.9625Z" fill="#000856"/>
<path d="M40 29.6211C35.3799 29.6211 31.6211 33.3799 31.6211 38C31.6211 38.581 31.6806 39.1483 31.7939 39.6964L41.6964 29.7937C41.1483 29.6806 40.581 29.6211 40 29.6211Z" fill="#000856"/>
<path d="M30.0977 38C30.0977 32.5398 34.5398 28.0977 40 28.0977C41.0251 28.0977 42.0146 28.2544 42.9453 28.5448L45.3465 26.1436C43.6878 25.3947 41.8743 25 40 25C36.5276 25 33.263 26.3522 30.8076 28.8076C28.3522 31.263 27 34.5276 27 38C27 39.8743 27.3947 41.688 28.1436 43.3465L30.545 40.9453C30.2544 40.0146 30.0977 39.0251 30.0977 38Z" fill="#000856"/>
<path d="M40 46.3789C44.6201 46.3789 48.3789 42.6201 48.3789 38C48.3789 37.7253 48.3652 37.4535 48.3393 37.1855L39.1855 46.3393C39.4535 46.3652 39.7253 46.3789 40 46.3789Z" fill="#000856"/>
<path d="M52.1545 33.3701L49.668 35.8566C49.821 36.5471 49.9023 37.2642 49.9023 37.9999C49.9023 43.4601 45.4601 47.9023 39.9999 47.9023C39.2642 47.9023 38.5471 47.821 37.8566 47.668L35.3701 50.1545C36.8291 50.7095 38.3922 50.9999 39.9999 50.9999C43.4723 50.9999 46.737 49.6477 49.1923 47.1923C51.6477 44.737 52.9999 41.4723 52.9999 37.9999C52.9999 36.3922 52.7095 34.8291 52.1545 33.3701Z" fill="#000856"/>
</g>
</g>
<defs>
<filter id="filter0_d_156_66" x="0" y="0" width="80" height="80" filterUnits="userSpaceOnUse" color-interpolation-filters="sRGB">
<feFlood flood-opacity="0" result="BackgroundImageFix"/>
<feColorMatrix in="SourceAlpha" type="matrix" values="0 0 0 0 0 0 0 0 0 0 0 0 0 0 0 0 0 0 127 0" result="hardAlpha"/>
<feOffset dy="2"/>
<feGaussianBlur stdDeviation="10"/>
<feComposite in2="hardAlpha" operator="out"/>
<feColorMatrix type="matrix" values="0 0 0 0 0 0 0 0 0 0.76 0 0 0 0 1 0 0 0 0.8 0"/>
<feBlend mode="normal" in2="BackgroundImageFix" result="effect1_dropShadow_156_66"/>
<feBlend mode="normal" in="SourceGraphic" in2="effect1_dropShadow_156_66" result="shape"/>
</filter>
<clipPath id="clip0_156_66">
<rect width="80" height="80" fill="white"/>
</clipPath>
<clipPath id="clip1_156_66">
<rect width="26" height="26" fill="white" transform="translate(27 25)"/>
</clipPath>
</defs>
</svg>
