<svg width="20" height="20" viewBox="0 0 20 20" fill="none" xmlns="http://www.w3.org/2000/svg">
<path fill-rule="evenodd" clip-rule="evenodd" d="M17.0043 2.90649C15.1332 1.0332 12.6448 0.00109863 9.99377 0C4.53113 0 0.0853272 4.44568 0.0831299 9.90979C0.0823975 11.6565 0.538696 13.3616 1.40601 14.8645L0 20L5.25378 18.6218C6.70142 19.4115 8.33118 19.8276 9.98975 19.8281H9.9939C15.4559 19.8281 19.9022 15.3821 19.9043 9.91772C19.9054 7.26953 18.8755 4.77966 17.0043 2.90649ZM9.99377 18.1544H9.99036C8.51233 18.1538 7.06274 17.7566 5.79785 17.0062L5.49719 16.8276L2.37952 17.6455L3.21167 14.6058L3.01575 14.2942C2.19116 12.9827 1.75574 11.4668 1.75647 9.9104C1.75818 5.36877 5.45349 1.67383 9.99707 1.67383C12.1973 1.67456 14.2655 2.53247 15.8207 4.08948C17.3759 5.64648 18.2318 7.71606 18.2311 9.91711C18.2291 14.4591 14.5341 18.1544 9.99377 18.1544ZM14.5121 11.9851C14.2645 11.8611 13.047 11.2622 12.8199 11.1794C12.5931 11.0968 12.4279 11.0557 12.2629 11.3035C12.0978 11.5513 11.6233 12.1091 11.4788 12.2743C11.3342 12.4396 11.1899 12.4603 10.9423 12.3363C10.6946 12.2124 9.89673 11.9508 8.95081 11.1072C8.21472 10.4506 7.71777 9.63965 7.57324 9.39185C7.42896 9.1438 7.57202 9.02271 7.68188 8.88647C7.94995 8.55359 8.21838 8.20459 8.3009 8.03943C8.38354 7.87415 8.34216 7.72949 8.28015 7.60559C8.21838 7.48169 7.72314 6.26282 7.51685 5.76685C7.31567 5.28418 7.11169 5.34937 6.95959 5.3418C6.81531 5.33459 6.65015 5.33313 6.48499 5.33313C6.31995 5.33313 6.05164 5.39502 5.82458 5.64307C5.59766 5.89099 4.95801 6.48999 4.95801 7.70886C4.95801 8.92773 5.84534 10.1052 5.96912 10.2705C6.0929 10.4358 7.71533 12.937 10.1993 14.0095C10.7902 14.2649 11.2513 14.4171 11.6111 14.5312C12.2043 14.7197 12.744 14.6931 13.1708 14.6294C13.6466 14.5582 14.6357 14.0303 14.8423 13.4519C15.0486 12.8734 15.0486 12.3777 14.9866 12.2743C14.9248 12.171 14.7596 12.1091 14.5121 11.9851Z" fill="white"/>
</svg>
