<svg width="47" height="47" viewBox="0 0 47 47" fill="none" xmlns="http://www.w3.org/2000/svg">
<path d="M23.5 0C16.6667 0 11.1074 5.55931 11.1074 12.3926C11.1074 19.2258 16.6667 24.7852 23.5 24.7852C30.3333 24.7852 35.8926 19.2258 35.8926 12.3926C35.8926 5.55931 30.3333 0 23.5 0Z" fill="#00E16F"/>
<path d="M38.9188 32.8812C35.5259 29.4362 31.0282 27.5391 26.2539 27.5391H20.7461C15.9719 27.5391 11.4741 29.4362 8.08125 32.8812C4.70505 36.3092 2.8457 40.8343 2.8457 45.623C2.8457 46.3835 3.46221 47 4.22266 47H42.7773C43.5378 47 44.1543 46.3835 44.1543 45.623C44.1543 40.8343 42.295 36.3092 38.9188 32.8812Z" fill="#00E16F"/>
</svg>
