<svg width="80" height="80" viewBox="0 0 80 80" fill="none" xmlns="http://www.w3.org/2000/svg">
<g filter="url(#filter0_d_56_2)">
<circle cx="40" cy="38" r="20" fill="#00C2FF"/>
</g>
<path d="M46.2094 39.2167C45.3382 40.4133 43.9269 41.1926 42.3367 41.1926H40.1056C39.3348 41.1926 38.6785 40.7033 38.4299 40.0184C38.1231 39.9269 37.8223 39.8081 37.5287 39.6623C36.907 39.3534 36.3425 38.9349 35.8455 38.4164C32.6221 39.1246 30.2096 41.9968 30.2096 45.433V45.8821C30.2096 46.4995 30.7102 47 31.3276 47H48.6724C49.2898 47 49.7903 46.4995 49.7903 45.8821V45.433C49.7903 42.7785 48.3505 40.4605 46.2094 39.2167Z" fill="#020F56"/>
<path d="M34.6573 36.1122C35.1378 36.1122 35.556 35.8459 35.7727 35.4529C35.7784 35.4685 35.7842 35.4839 35.79 35.4994C35.7917 35.504 35.7935 35.5087 35.7952 35.5133C36.3035 36.8512 37.2925 37.9728 38.5966 38.4628C38.912 37.9617 39.4697 37.6284 40.1056 37.6284H42.3368C42.5593 37.6284 42.7665 37.5656 42.9481 37.4641C43.253 37.2935 43.5273 36.8609 43.6689 36.6316C43.8955 36.2647 44.0711 35.876 44.2268 35.4522C44.3143 35.6111 44.4346 35.7494 44.5788 35.8577V36.4048C44.5788 37.641 43.573 38.6468 42.3367 38.6468H40.1056C39.6838 38.6468 39.3418 38.9888 39.3418 39.4105C39.3418 39.8324 39.6838 40.1743 40.1056 40.1743H42.3367C44.4153 40.1743 46.1063 38.4833 46.1063 36.4048V35.8577C46.4155 35.6254 46.6155 35.2557 46.6155 34.8393V32.5363V31.6532C46.6155 31.2282 46.407 30.8521 46.087 30.6209C45.8388 27.4799 43.2036 25 39.9999 25C36.7962 25 34.1611 27.4799 33.9129 30.6208C33.5928 30.8521 33.3844 31.2282 33.3844 31.6531V34.8392C33.3844 35.5442 33.9571 36.1122 34.6573 36.1122ZM39.9999 26.5276C42.3715 26.5276 44.3276 28.34 44.5563 30.6524C44.4062 30.7705 44.2832 30.9214 44.1985 31.0946C43.4778 29.2143 41.869 27.9052 39.9999 27.9052C38.0904 27.9052 36.5074 29.2593 35.8041 31.0871C35.8031 31.0895 35.8022 31.0921 35.8013 31.0946C35.7166 30.9215 35.5936 30.7706 35.4435 30.6525C35.6723 28.34 37.6283 26.5276 39.9999 26.5276Z" fill="#020F56"/>
<defs>
<filter id="filter0_d_56_2" x="0" y="0" width="80" height="80" filterUnits="userSpaceOnUse" color-interpolation-filters="sRGB">
<feFlood flood-opacity="0" result="BackgroundImageFix"/>
<feColorMatrix in="SourceAlpha" type="matrix" values="0 0 0 0 0 0 0 0 0 0 0 0 0 0 0 0 0 0 127 0" result="hardAlpha"/>
<feOffset dy="2"/>
<feGaussianBlur stdDeviation="10"/>
<feComposite in2="hardAlpha" operator="out"/>
<feColorMatrix type="matrix" values="0 0 0 0 0 0 0 0 0 0.76 0 0 0 0 1 0 0 0 0.8 0"/>
<feBlend mode="normal" in2="BackgroundImageFix" result="effect1_dropShadow_56_2"/>
<feBlend mode="normal" in="SourceGraphic" in2="effect1_dropShadow_56_2" result="shape"/>
</filter>
</defs>
</svg>
