<svg width="47" height="47" viewBox="0 0 47 47" fill="none" xmlns="http://www.w3.org/2000/svg">
<path fill-rule="evenodd" clip-rule="evenodd" d="M0 23.5C0 36.4576 10.5423 47 23.4999 47C36.4575 47 47 36.4576 47 23.5C47 10.5424 36.4576 0 23.5 0C10.5424 0 0 10.5424 0 23.5ZM29.8353 32.2106L22.3122 24.6869C22.0003 24.3722 21.8221 23.9455 21.8221 23.5001V8.29776C21.8221 7.37071 22.5745 6.61936 23.5 6.61936C24.4256 6.61936 25.1779 7.37071 25.1779 8.29776V22.8051L32.211 29.8368C32.8643 30.4927 32.8643 31.5552 32.211 32.2106C31.8843 32.5392 31.4538 32.7031 31.0232 32.7031C30.5926 32.703 30.1669 32.5392 29.8353 32.2106Z" fill="#00E16F"/>
</svg>
