<svg width="76" height="76" viewBox="0 0 76 76" fill="none" xmlns="http://www.w3.org/2000/svg">
<path d="M47.942 27.6007C72.6684 27.6007 70.8417 27.5955 71.2224 27.6102C70.9988 26.7562 70.5542 25.9483 69.886 25.2801L63.1069 18.501C61.642 17.036 59.393 16.6101 57.5099 17.4417C56.4988 17.8885 55.294 17.663 54.5119 16.881C53.7299 16.0991 53.5045 14.8942 53.951 13.8831C54.7827 12.0005 54.3571 9.7512 52.8918 8.28602L46.1128 1.50689C44.1034 -0.502221 40.8341 -0.50237 38.8247 1.50689L30.3433 9.98829C32.7335 12.3804 45.5581 25.2149 47.942 27.6007Z" fill="#00E16F"/>
<path d="M27.1821 13.1497L12.7311 27.6007H41.6195C41.5672 27.5483 40.4616 26.4415 27.1821 13.1497Z" fill="#00E16F"/>
<path d="M72.7922 51.5184C74.7115 50.7754 76.001 48.8837 76.001 46.8117V37.2247C76.001 34.3832 73.689 32.0713 70.8475 32.0713H60.3537V75.9985H70.8475C73.689 75.9985 76.001 73.6866 76.001 70.845V61.258C76.001 59.1862 74.7116 57.2945 72.7924 56.5513C71.7614 56.152 71.0688 55.1407 71.0688 54.0348C71.0688 52.9289 71.7614 51.9177 72.7922 51.5184Z" fill="#00E16F"/>
<path d="M0 37.2247V46.8117C0 48.8837 1.28948 50.7754 3.20858 51.5183C4.23951 51.9177 4.93201 52.9289 4.93201 54.0348C4.93201 55.1407 4.23936 56.152 3.20843 56.5513C1.28933 57.2945 0 59.186 0 61.258V70.845C0 73.6866 2.31192 75.9985 5.15346 75.9985H55.883V32.0713H5.15346C2.31192 32.0713 0 34.3831 0 37.2247ZM15.6473 42.4687H49.1771V46.9393H15.6473V42.4687ZM15.6473 51.41H49.1771V55.8806H15.6473V51.41ZM15.6473 60.3512H49.1771V64.8219H15.6473V60.3512Z" fill="#00E16F"/>
</svg>
