<svg width="80" height="80" viewBox="0 0 80 80" fill="none" xmlns="http://www.w3.org/2000/svg">
<g filter="url(#filter0_d_56_2)">
<circle cx="40" cy="38" r="20" fill="#00C2FF"/>
</g>
<g clip-path="url(#clip0_56_2)">
<path d="M50.3643 36.6543C49.5664 36.6543 48.796 36.1544 48.51 35.4094C48.4583 35.276 48.4031 35.1426 48.3442 35.0092C48.0197 34.2787 48.1807 33.4087 48.7455 32.8439C48.9858 32.6036 48.9858 32.2142 48.7455 31.9739L47.0055 30.234C46.7652 29.9936 46.3759 29.9936 46.1355 30.234C45.5684 30.7987 44.6972 30.9585 43.969 30.6353C43.8368 30.5764 43.7034 30.5211 43.5701 30.4695C42.8251 30.1835 42.3252 29.4131 42.3252 28.6152C42.3252 28.2752 42.05 28 41.71 28H39.249C38.909 28 38.6338 28.2752 38.6338 28.6152C38.6338 29.4131 38.1339 30.1835 37.3889 30.4695C37.2555 30.5212 37.1221 30.5764 36.9887 30.6353C36.2605 30.9586 35.3882 30.7987 34.8234 30.234C34.5831 29.9937 34.1937 29.9937 33.9534 30.234L32.2135 31.974C31.9732 32.2143 31.9732 32.6036 32.2135 32.8439C32.7795 33.4099 32.9405 34.2799 32.6148 35.0105C32.5559 35.1427 32.5007 35.276 32.449 35.4094C32.163 36.1544 31.4336 36.6543 30.6357 36.6543C30.2957 36.6543 30.0205 36.9295 30.0205 37.2695V39.7305C30.0205 40.0705 30.2957 40.3457 30.6357 40.3457C31.4336 40.3457 32.163 40.8456 32.449 41.5906C32.5007 41.724 32.5559 41.8574 32.6148 41.9908C32.9393 42.7213 32.7782 43.5901 32.2135 44.1549C31.9731 44.3953 31.9733 44.7847 32.2135 45.0249L33.9535 46.766C34.1938 47.0064 34.5832 47.0062 34.8234 46.766C35.3894 46.2001 36.2618 46.039 36.99 46.3647C37.1222 46.4236 37.2555 46.4789 37.3889 46.5305C38.1339 46.8165 38.6338 47.5869 38.6338 48.3848C38.6338 48.7248 38.909 49 39.249 49H41.71C42.05 49 42.3252 48.7248 42.3252 48.3848C42.3252 47.5869 42.8251 46.8165 43.5701 46.5305C43.7035 46.4788 43.8369 46.4236 43.9703 46.3647C44.6996 46.0402 45.5708 46.2 46.1356 46.766C46.3663 46.9967 46.7749 46.9967 47.0056 46.766L48.7455 45.0248C48.9859 44.7845 48.9857 44.3951 48.7455 44.1549C48.1796 43.5901 48.0185 42.7201 48.3442 41.9895C48.4031 41.8573 48.4583 41.724 48.51 41.5906C48.796 40.8456 49.5664 40.3457 50.3643 40.3457C50.7043 40.3457 50.9795 40.0705 50.9795 39.7305V37.2695C50.9795 36.9295 50.7043 36.6543 50.3643 36.6543ZM40.4795 44.6523C37.0873 44.6523 34.3271 41.8922 34.3271 38.5C34.3271 35.1078 37.0873 32.3477 40.4795 32.3477C43.8717 32.3477 46.6318 35.1078 46.6318 38.5C46.6318 41.8922 43.8717 44.6523 40.4795 44.6523Z" fill="#020F56" fill-opacity="0.960784"/>
<path d="M40.4795 41.5762C40.8193 41.5762 41.0947 41.3007 41.0947 40.9609C41.0947 40.6212 40.8193 40.3457 40.4795 40.3457C40.1397 40.3457 39.8643 40.6212 39.8643 40.9609C39.8643 41.3007 40.1397 41.5762 40.4795 41.5762Z" fill="#020F56" fill-opacity="0.960784"/>
<path d="M43.5232 37.9172C41.8938 36.2878 39.0652 36.2878 37.4358 37.9172C37.1955 38.1575 36.8061 38.1575 36.5658 37.9172C36.3255 37.6769 36.3255 37.2875 36.5658 37.0472C37.6124 36.0006 39.0027 35.4238 40.4795 35.4238C41.9563 35.4238 43.3466 36.0006 44.3932 37.0472C44.6335 37.2875 44.6335 37.6769 44.3932 37.9172C44.1529 38.1575 43.7636 38.1576 43.5232 37.9172Z" fill="#020F56" fill-opacity="0.960784"/>
<path d="M41.7833 39.656C41.0887 38.959 39.8702 38.959 39.1757 39.656C38.9354 39.8963 38.5449 39.8951 38.3046 39.6572C38.0642 39.4169 38.0642 39.0275 38.3034 38.786C39.4642 37.6252 41.4949 37.6252 42.6557 38.786C42.8948 39.0275 42.8948 39.4169 42.6545 39.6572C42.411 39.8982 42.0212 39.8939 41.7833 39.656Z" fill="#020F56" fill-opacity="0.960784"/>
</g>
<defs>
<filter id="filter0_d_56_2" x="0" y="0" width="80" height="80" filterUnits="userSpaceOnUse" color-interpolation-filters="sRGB">
<feFlood flood-opacity="0" result="BackgroundImageFix"/>
<feColorMatrix in="SourceAlpha" type="matrix" values="0 0 0 0 0 0 0 0 0 0 0 0 0 0 0 0 0 0 127 0" result="hardAlpha"/>
<feOffset dy="2"/>
<feGaussianBlur stdDeviation="10"/>
<feComposite in2="hardAlpha" operator="out"/>
<feColorMatrix type="matrix" values="0 0 0 0 0 0 0 0 0 0.76 0 0 0 0 1 0 0 0 0.8 0"/>
<feBlend mode="normal" in2="BackgroundImageFix" result="effect1_dropShadow_56_2"/>
<feBlend mode="normal" in="SourceGraphic" in2="effect1_dropShadow_56_2" result="shape"/>
</filter>
<clipPath id="clip0_56_2">
<rect width="21" height="21" fill="white" transform="translate(30 28)"/>
</clipPath>
</defs>
</svg>
