<svg width="70" height="96" viewBox="0 0 70 96" fill="none" xmlns="http://www.w3.org/2000/svg">
<path d="M35 0C15.829 0 0.232422 15.5966 0.232422 34.7674C0.232422 58.5589 31.346 93.4862 32.6707 94.9614C33.9149 96.3472 36.0873 96.3448 37.3293 94.9614C38.654 93.4862 69.7675 58.5589 69.7675 34.7674C69.7672 15.5966 54.1707 0 35 0ZM35 52.2598C25.3546 52.2598 17.5077 44.4127 17.5077 34.7674C17.5077 25.122 25.3548 17.2751 35 17.2751C44.6452 17.2751 52.492 25.1222 52.492 34.7676C52.492 44.4129 44.6452 52.2598 35 52.2598Z" fill="#00E16F"/>
</svg>
