<svg width="80" height="80" viewBox="0 0 80 80" fill="none" xmlns="http://www.w3.org/2000/svg">
<g filter="url(#filter0_d_56_2)">
<circle cx="40" cy="38" r="20" fill="#00C2FF"/>
</g>
<g clip-path="url(#clip0_56_2)">
<path d="M42.7266 45.2168H38.2734V46.8867H36.3809V48H44.6191V46.8867H42.7266V45.2168Z" fill="#020F56"/>
<path d="M31 29V41.3203H50V29H31ZM36.6035 39.7988H35.4902V37.2012H36.6035V39.7988ZM36.6035 34.1953H33.2154V33.082H36.6035V34.1953ZM37.6426 31.9688H33.2154V30.8555H37.6426V31.9688ZM38.8301 39.7988H37.7168V36.459H38.8301V39.7988ZM41.0566 39.7988H39.9434V35.7168H41.0566V39.7988ZM43.2832 39.7988H42.1699V34.9746H43.2832V39.7988ZM46.0898 34.1103L45.5098 33.6465V39.7988H44.3965V33.6465L43.8165 34.1103L43.121 33.2412L44.9531 31.7754L46.7852 33.2412L46.0898 34.1103Z" fill="#020F56"/>
<path d="M31 42.4336H50V44.1035H31V42.4336Z" fill="#020F56"/>
</g>
<defs>
<filter id="filter0_d_56_2" x="0" y="0" width="80" height="80" filterUnits="userSpaceOnUse" color-interpolation-filters="sRGB">
<feFlood flood-opacity="0" result="BackgroundImageFix"/>
<feColorMatrix in="SourceAlpha" type="matrix" values="0 0 0 0 0 0 0 0 0 0 0 0 0 0 0 0 0 0 127 0" result="hardAlpha"/>
<feOffset dy="2"/>
<feGaussianBlur stdDeviation="10"/>
<feComposite in2="hardAlpha" operator="out"/>
<feColorMatrix type="matrix" values="0 0 0 0 0 0 0 0 0 0.76 0 0 0 0 1 0 0 0 0.8 0"/>
<feBlend mode="normal" in2="BackgroundImageFix" result="effect1_dropShadow_56_2"/>
<feBlend mode="normal" in="SourceGraphic" in2="effect1_dropShadow_56_2" result="shape"/>
</filter>
<clipPath id="clip0_56_2">
<rect width="19" height="19" fill="white" transform="translate(31 29)"/>
</clipPath>
</defs>
</svg>
