<svg width="96" height="96" viewBox="0 0 96 96" fill="none" xmlns="http://www.w3.org/2000/svg">
<path fill-rule="evenodd" clip-rule="evenodd" d="M79.8356 16.0323C71.4157 7.60254 60.2179 2.95807 48.2884 2.95312C23.7065 2.95312 3.70038 22.9587 3.69049 47.5472C3.68719 55.4073 5.74054 63.0802 9.64343 69.8434L3.31641 92.9531L26.9584 86.7513C33.4728 90.3049 40.8067 92.1775 48.2703 92.1797H48.2889C72.8681 92.1797 92.8764 72.1725 92.8857 47.5829C92.8907 35.666 88.2561 24.4616 79.8356 16.0323ZM48.2884 84.648H48.273C41.6219 84.6453 35.0988 82.8578 29.4067 79.4811L28.0538 78.6775L14.0242 82.3579L17.7689 68.6794L16.8873 67.277C13.1766 61.3751 11.2172 54.5537 11.2205 47.5499C11.2282 27.1126 27.8571 10.4854 48.3032 10.4854C58.2041 10.4886 67.5112 14.3492 74.5095 21.3558C81.5078 28.3623 85.3596 37.6754 85.3563 47.5801C85.3475 68.0191 68.7197 84.648 48.2884 84.648ZM68.6208 56.8861C67.5068 56.328 62.0279 53.6331 61.0062 53.2606C59.9855 52.8887 59.2418 52.7036 58.4996 53.8187C57.7564 54.9338 55.6212 57.4442 54.9708 58.1874C54.3204 58.9312 53.6711 59.0246 52.5566 58.4665C51.442 57.9089 47.8517 56.7318 43.595 52.9354C40.2827 49.9807 38.0464 46.3315 37.396 45.2164C36.7467 44.1002 37.3905 43.5553 37.8849 42.9423C39.0912 41.4443 40.2991 39.8738 40.6705 39.1306C41.0424 38.3868 40.8561 37.7358 40.5771 37.1783C40.2991 36.6207 38.0706 31.1358 37.1422 28.9039C36.2369 26.7319 35.319 27.0253 34.6346 26.9912C33.9853 26.9588 33.2421 26.9522 32.4988 26.9522C31.7562 26.9522 30.5488 27.2307 29.527 28.3469C28.5059 29.4626 25.6274 32.1581 25.6274 37.643C25.6274 43.1279 29.6204 48.4266 30.1774 49.1704C30.7344 49.9142 38.0354 61.1697 49.2134 65.996C51.8721 67.1451 53.9474 67.8301 55.5663 68.3438C58.236 69.1919 60.6645 69.0721 62.5849 68.7854C64.7261 68.4651 69.1772 66.0894 70.1067 63.4867C71.035 60.8835 71.035 58.6527 70.756 58.1874C70.478 57.7227 69.7348 57.4442 68.6208 56.8861Z" fill="#00E16F"/>
</svg>
