<svg width="80" height="80" viewBox="0 0 80 80" fill="none" xmlns="http://www.w3.org/2000/svg">
<g filter="url(#filter0_d_9_893)">
<circle cx="40" cy="38" r="20" fill="#00C2FF"/>
</g>
<g clip-path="url(#clip0_9_893)">
<path d="M40.0519 46.2784C41.4713 46.2784 42.622 45.1277 42.622 43.7082C42.622 42.2888 41.4713 41.1381 40.0519 41.1381C38.6324 41.1381 37.4817 42.2888 37.4817 43.7082C37.4817 45.1277 38.6324 46.2784 40.0519 46.2784Z" fill="#020F56"/>
<path d="M46.1944 37.5159C46.1563 37.4767 46.116 37.4418 46.0768 37.4058L45.9614 37.2966C45.9423 37.2765 45.9211 37.2617 45.8967 37.2426C42.5733 34.2232 37.487 34.343 34.3151 37.5149L33.9433 37.8878L33.4284 38.4027C32.8012 39.0299 32.8044 40.0522 33.4326 40.6804C34.0619 41.3108 35.0843 41.3119 35.7104 40.6847L36.5982 39.7969C38.6153 37.7808 41.8964 37.7808 43.9124 39.7958L44.5534 40.4166C45.1742 41.0375 46.187 41.0364 46.811 40.4113C47.113 40.1105 47.2793 39.7089 47.2804 39.282C47.2814 38.8572 47.1172 38.4556 46.8153 38.1558L46.1944 37.5159Z" fill="#020F56"/>
<path d="M50.573 34.3387L50.0391 33.8047C50.037 33.8026 50.0359 33.7994 50.0317 33.7984L49.61 33.3746C49.5359 33.3015 49.4553 33.2379 49.3706 33.1828C43.9538 28.4271 35.7146 28.5733 30.4705 33.6183C30.445 33.6416 30.4164 33.6575 30.391 33.6829L29.4269 34.648C28.8548 35.2191 28.858 36.1482 29.4333 36.7234C30.0075 37.2976 30.9366 37.3019 31.5087 36.7287L32.4728 35.7657C32.4791 35.7572 32.4844 35.7498 32.4908 35.7445C36.7317 31.6477 43.459 31.6223 47.7338 35.6608L48.4923 36.4204C49.0634 36.9915 49.9946 36.9894 50.5688 36.4151C51.1419 35.8399 51.1441 34.9097 50.573 34.3387Z" fill="#020F56"/>
</g>
<defs>
<filter id="filter0_d_9_893" x="0" y="0" width="80" height="80" filterUnits="userSpaceOnUse" color-interpolation-filters="sRGB">
<feFlood flood-opacity="0" result="BackgroundImageFix"/>
<feColorMatrix in="SourceAlpha" type="matrix" values="0 0 0 0 0 0 0 0 0 0 0 0 0 0 0 0 0 0 127 0" result="hardAlpha"/>
<feOffset dy="2"/>
<feGaussianBlur stdDeviation="10"/>
<feComposite in2="hardAlpha" operator="out"/>
<feColorMatrix type="matrix" values="0 0 0 0 0 0 0 0 0 0.76 0 0 0 0 1 0 0 0 0.8 0"/>
<feBlend mode="normal" in2="BackgroundImageFix" result="effect1_dropShadow_9_893"/>
<feBlend mode="normal" in="SourceGraphic" in2="effect1_dropShadow_9_893" result="shape"/>
</filter>
<clipPath id="clip0_9_893">
<rect width="22" height="22" fill="white" transform="translate(29 27)"/>
</clipPath>
</defs>
</svg>
